<?xml version="1.0" encoding="utf-8"?>
<!-- Generator: Adobe Illustrator 21.0.1, SVG Export Plug-In . SVG Version: 6.00 Build 0)  -->
<svg version="1.1" id="Layer_1" xmlns="http://www.w3.org/2000/svg" xmlns:xlink="http://www.w3.org/1999/xlink" x="0px" y="0px"
	 viewBox="0 0 157.4 164.9" style="enable-background:new 0 0 157.4 164.9;" xml:space="preserve">
<style type="text/css">
	.st0{fill:#CCAA14;}
	.st1{fill:#39464D;}
	.st2{fill:none;}
	.st3{fill:#D8C987;}
	.st4{fill:#4D4D4D;}
	.st5{fill:#B29309;}
</style>
<g>
	<g>
		<path fill="CCAA14" d="M113.8,34.6c0,0,24.1-25.7,30.6-25.7c7.1,0,0,81.2,0,81.2L113.8,34.6z"/>
		<path fill="#39464D" d="M146.4,99.5l-36-65.3l1.4-1.5c0.1-0.1,6.2-6.6,13-13c12.8-12,17.2-13.6,19.7-13.6c1.1,0,2.1,0.5,2.9,1.3
			c1.4,1.5,4.3,4.7,2.5,44.7c-0.9,19.3-2.5,38-2.5,38.2L146.4,99.5z M117.2,35.1l25.2,45.7c0.5-7.1,1.3-17.5,1.8-28.2
			c1.4-29.7,0.1-38.2-0.7-40.6c-1.6,0.7-5.8,3.2-15,11.9C123.7,28.3,119.3,32.8,117.2,35.1z"/>
	</g>
	<g>
		<line fill="none" x1="136.3" y1="33.1" x2="136.3" y2="65.9"/>
		<path fill="#D8C987" d="M136.3,71.2c-2.9,0-5.3-2.4-5.3-5.3V33.1c0-2.9,2.4-5.3,5.3-5.3s5.3,2.4,5.3,5.3v32.8
			C141.6,68.8,139.2,71.2,136.3,71.2z"/>
	</g>
	<g>
		<path fill="CCAA14" d="M43.4,34.6c0,0-23.6-25.7-30.6-25.7c-6.6,0,0,81.2,0,81.2L43.4,34.6z"/>
		<path fill="#39464D" d="M10.8,99.6L10,90.4c0-0.2-1.5-19-2.4-38.4C5.9,11.9,8.6,8.8,10,7.4c0.7-0.8,1.7-1.2,2.7-1.2
			c2.6,0,7.1,1.5,19.9,13.6c6.8,6.4,12.7,12.9,12.8,13l1.3,1.5L10.8,99.6z M13.8,12c-1.7,5.7-1.7,31.3,1,68.7L40,35
			c-2.1-2.2-6.5-6.8-11.2-11.3C19.8,15.2,15.6,12.7,13.8,12z"/>
	</g>
	<g>
		<line fill="none" x1="20.9" y1="33.1" x2="20.9" y2="65.9"/>
		<path fill="#D8C987" d="M20.9,71.2c-2.9,0-5.3-2.4-5.3-5.3V33.1c0-2.9,2.4-5.3,5.3-5.3s5.3,2.4,5.3,5.3v32.8
			C26.2,68.8,23.8,71.2,20.9,71.2z"/>
	</g>
	<g>
		<circle fill="CCAA14" cx="78.7" cy="90.2" r="65.7"/>
		<path fill="#4D4D4D" d="M78.7,158.7c-37.8,0-68.5-30.7-68.5-68.5S41,21.7,78.7,21.7c37.8,0,68.5,30.7,68.5,68.5
			S116.5,158.7,78.7,158.7z M78.7,27.2c-34.7,0-63,28.3-63,63s28.3,63,63,63s63-28.3,63-63S113.5,27.2,78.7,27.2z"/>
	</g>
	<g>
		<path fill="#D8C987" d="M78.9,147.8c19.3,0,36.8-6.5,49.6-17.1c-10.5,13.7-28.8,22.8-49.6,22.8s-39.1-9.1-49.6-22.8
			C42,141.3,59.6,147.8,78.9,147.8z"/>
	</g>
	<g>
		<path fill="#D8C987" d="M78.7,35.6c16.3,0,31.2,6.5,42,17.1c-8.9-13.7-24.4-22.8-42-22.8s-33.1,9.1-42,22.8
			C47.6,42.1,62.4,35.6,78.7,35.6z"/>
		<path fill="#D8C987" d="M36.8,53.5c-0.2,0-0.3-0.1-0.5-0.2c-0.3-0.2-0.4-0.7-0.2-1c9.4-14.5,25.3-23.2,42.6-23.2s33.2,8.7,42.6,23.2
			c0.2,0.3,0.1,0.8-0.2,1c-0.3,0.2-0.7,0.2-1,0c-11.1-10.9-25.8-17-41.4-17s-30.3,6-41.5,16.9C37.1,53.4,36.9,53.5,36.8,53.5z
			 M78.7,34.8c13.5,0,26.4,4.4,37,12.6c-9.3-10.6-22.7-16.8-37-16.8s-27.7,6.2-37,16.8C52.3,39.3,65.2,34.8,78.7,34.8z"/>
	</g>
	<g>
		<g>
			<g>
				<line fill="none" x1="78.3" y1="25.5" x2="78.3" y2="46.2"/>
				<path fill="B29309" d="M78.3,49c-1.5,0-2.8-1.2-2.8-2.8V25.5c0-1.5,1.2-2.8,2.8-2.8s2.8,1.2,2.8,2.8v20.7
					C81.1,47.7,79.9,49,78.3,49z"/>
			</g>
			<g>
				<line fill="none" x1="92.5" y1="26" x2="92.5" y2="56.3"/>
				<path class="st5" d="M92.5,59.1c-1.5,0-2.8-1.2-2.8-2.8V26c0-1.5,1.2-2.8,2.8-2.8s2.8,1.2,2.8,2.8v30.2
					C95.2,57.8,94,59.1,92.5,59.1z"/>
			</g>
			<g>
				<line fill="none" x1="64.2" y1="26" x2="64.2" y2="56.3"/>
				<path fill="B29309" d="M64.2,59.1c-1.5,0-2.8-1.2-2.8-2.8V26c0-1.5,1.2-2.8,2.8-2.8S67,24.5,67,26v30.2
					C67,57.8,65.8,59.1,64.2,59.1z"/>
			</g>
		</g>
		<g>
			<g>
				<line fill="none" x1="18.6" y1="115.2" x2="32.8" y2="109.9"/>
				<path fill="B29309" d="M18.6,118c-1.1,0-2.2-0.7-2.6-1.8c-0.5-1.4,0.2-3,1.6-3.6l14.2-5.3c1.4-0.5,3,0.2,3.6,1.6
					c0.5,1.4-0.2,3-1.6,3.6l-14.2,5.3C19.3,117.9,19,118,18.6,118z"/>
			</g>
			<g>
				<line fill="none" x1="15.6" y1="105.6" x2="35.9" y2="98"/>
				<path fill="B29309" d="M15.6,108.3c-1.1,0-2.2-0.7-2.6-1.8c-0.5-1.4,0.2-3,1.6-3.6l20.3-7.6c1.4-0.5,3,0.2,3.6,1.6
					c0.5,1.4-0.2,3-1.6,3.6l-20.3,7.6C16.2,108.3,15.9,108.3,15.6,108.3z"/>
			</g>
			<g>
				<line fill="none" x1="22.6" y1="124.4" x2="42.9" y2="116.8"/>
				<path fill="B29309" d="M22.6,127.2c-1.1,0-2.2-0.7-2.6-1.8c-0.5-1.4,0.2-3,1.6-3.6l20.3-7.6c1.4-0.5,3,0.2,3.6,1.6
					c0.5,1.4-0.2,3-1.6,3.6L23.6,127C23.3,127.2,23,127.2,22.6,127.2z"/>
			</g>
			<g>
				<line fill="none" x1="137.7" y1="115.2" x2="123.5" y2="109.9"/>
				<path fill="B29309" d="M137.7,118c-0.3,0-0.7-0.1-1-0.2l-14.2-5.3c-1.4-0.5-2.2-2.1-1.6-3.6c0.5-1.4,2.1-2.2,3.6-1.6l14.2,5.3
					c1.4,0.5,2.2,2.1,1.6,3.6C139.8,117.3,138.8,118,137.7,118z"/>
			</g>
			<g>
				<line fill="none" x1="140.7" y1="105.6" x2="120.4" y2="98"/>
				<path fill="B29309" d="M140.7,108.3c-0.3,0-0.7-0.1-1-0.2l-20.3-7.6c-1.4-0.5-2.2-2.1-1.6-3.6c0.5-1.4,2.1-2.2,3.6-1.6l20.3,7.6
					c1.4,0.5,2.2,2.1,1.6,3.6C142.9,107.7,141.9,108.3,140.7,108.3z"/>
			</g>
			<g>
				<line fill="none" x1="133.6" y1="124.4" x2="113.4" y2="116.8"/>
				<path fill="B29309" d="M133.6,127.2c-0.3,0-0.7-0.1-1-0.2l-20.3-7.6c-1.4-0.5-2.2-2.1-1.6-3.6c0.5-1.4,2.1-2.2,3.6-1.6l20.3,7.6
					c1.4,0.5,2.2,2.1,1.6,3.6C135.8,126.5,134.8,127.2,133.6,127.2z"/>
			</g>
		</g>
	</g>
	<g>
		<path fill="#39464D" d="M78.7,158.7c-37.8,0-68.5-30.7-68.5-68.5s30.7-68.5,68.5-68.5s68.5,30.7,68.5,68.5S116.5,158.7,78.7,158.7z
			 M78.7,27.2c-34.7,0-63,28.3-63,63s28.3,63,63,63s63-28.3,63-63S113.4,27.2,78.7,27.2z"/>
	</g>
	<g>
		<path fill="#39464D" d="M119.3,86.7c-0.7,0-1.4-0.3-2-0.8c-0.7-0.7-7.4-6.8-14.2,0c-1.1,1.1-2.8,1.1-3.9,0s-1.1-2.8,0-3.9
			c8.7-8.7,18.2-3.8,22.1,0c1.1,1.1,1.1,2.8,0,3.9C120.8,86.4,120.1,86.7,119.3,86.7z"/>
	</g>
	<g>
		<path fill="#39464D" d="M78.7,93.2c-2.2,0-10.9,19.9-10.9,22.1s8.7,9.1,10.9,9.1c2.2,0,10.9-6.9,10.9-9.1S80.9,93.2,78.7,93.2z"/>
	</g>
	<g>
		<path fill="#39464D" d="M68.9,134.2c-7,0-12.8-5.7-12.8-12.8c0-1.5,1.2-2.8,2.8-2.8c1.5,0,2.8,1.2,2.8,2.8c0,4,3.2,7.2,7.2,7.2
			s7.2-3.2,7.2-7.2c0-1.5,1.2-2.8,2.8-2.8s2.8,1.2,2.8,2.8C81.7,128.5,75.9,134.2,68.9,134.2z"/>
	</g>
	<g>
		<path fill="#39464D" d="M88.6,134.2c-7,0-12.8-5.7-12.8-12.8c0-1.5,1.2-2.8,2.8-2.8c1.5,0,2.8,1.2,2.8,2.8c0,4,3.2,7.2,7.2,7.2
			s7.2-3.2,7.2-7.2c0-1.5,1.2-2.8,2.8-2.8s2.8,1.2,2.8,2.8C101.3,128.5,95.6,134.2,88.6,134.2z"/>
	</g>
	<g>
		<circle fill="#39464D" cx="46.9" cy="81.9" r="6.5"/>
	</g>
</g>
</svg>
