<?xml version="1.0" encoding="utf-8"?>
<!-- Generator: Adobe Illustrator 21.0.1, SVG Export Plug-In . SVG Version: 6.00 Build 0)  -->
<svg version="1.1" id="Layer_1" xmlns="http://www.w3.org/2000/svg" xmlns:xlink="http://www.w3.org/1999/xlink" x="0px" y="0px"
	 viewBox="0 0 388.6 415.9" style="enable-background:new 0 0 388.6 415.9;" xml:space="preserve">
<style type="text/css">
	.st0{fill:#CCAA14;stroke:#4D4D4D;stroke-width:11;stroke-miterlimit:10;}
	.st1{fill:#FFFFFF;stroke:#D8C987;stroke-width:21;stroke-linecap:round;stroke-miterlimit:10;}
	.st2{fill:#D8C987;}
	.st3{fill:#D8C987;stroke:#D8C987;stroke-width:3;stroke-linejoin:round;stroke-miterlimit:10;}
	.st4{fill:#FFFFFF;stroke:#B29309;stroke-width:11;stroke-linecap:round;stroke-miterlimit:10;}
	.st5{fill:none;stroke:#4D4D4D;stroke-width:11;stroke-miterlimit:10;}
	.st6{fill:none;stroke:#4D4D4D;stroke-width:11;stroke-linecap:round;stroke-miterlimit:10;}
	.st7{fill:#4D4D4D;}
	.st8{fill:none;stroke:#4D4D4D;stroke-width:11;stroke-linecap:round;stroke-linejoin:round;stroke-miterlimit:10;}
</style>
<g>
	<path class="st0" d="M286.1,82.8c0,0,63-67.2,80.1-67.2c18.5,0,0,212.6,0,212.6L286.1,82.8z"/>
	<line class="st1" x1="345.1" y1="78.6" x2="345.1" y2="164.4"/>
	<path class="st0" d="M102,82.8c0,0-61.6-67.2-80.1-67.2c-17.1,0,0,212.6,0,212.6L102,82.8z"/>
	<line class="st1" x1="41.7" y1="78.6" x2="41.7" y2="164.4"/>
	<circle class="st0" cx="194.4" cy="228.2" r="172"/>
	<path class="st2" d="M194.8,379.1c50.5,0,96.4-17.1,129.9-44.8c-27.6,36-75.4,59.7-129.9,59.7S92.5,370.2,64.9,334.3
		C98.4,362,144.2,379.1,194.8,379.1z"/>
	<path class="st3" d="M194.4,85.4c42.8,0,81.5,17.1,109.9,44.8c-23.3-36-63.8-59.7-109.9-59.7s-86.5,23.8-109.9,59.7
		C112.9,102.5,151.6,85.4,194.4,85.4z"/>
	<g>
		<g>
			<line class="st4" x1="193.4" y1="58.8" x2="193.4" y2="112.9"/>
			<line class="st4" x1="230.3" y1="60.1" x2="230.3" y2="139.3"/>
			<line class="st4" x1="156.4" y1="60.1" x2="156.4" y2="139.3"/>
		</g>
		<g>
			<line class="st4" x1="37.1" y1="293.7" x2="74.2" y2="279.8"/>
			<line class="st4" x1="29.1" y1="268.5" x2="82.2" y2="248.6"/>
			<line class="st4" x1="47.6" y1="317.9" x2="100.7" y2="298"/>
			<line class="st4" x1="348.6" y1="293.7" x2="311.5" y2="279.8"/>
			<line class="st4" x1="356.6" y1="268.5" x2="303.5" y2="248.6"/>
			<line class="st4" x1="338.1" y1="317.9" x2="285" y2="298"/>
		</g>
	</g>
	<circle class="st5" cx="194.2" cy="228.2" r="172"/>
	<path class="st6" d="M300.6,211.7c0,0-23.7-23.7-47.5,0"/>
	<path class="st7" d="M194.2,236.1c-5.8,0-28.5,52.1-28.5,57.9c0,5.8,22.7,23.8,28.5,23.8s28.5-18,28.5-23.8
		C222.7,288.1,200,236.1,194.2,236.1z"/>
	<g>
		<path class="st8" d="M194.8,310.1c0,14.4-11.7,26.2-26.2,26.2c-14.4,0-26.2-11.7-26.2-26.2"/>
		<path class="st8" d="M193.9,310.1c0,14.4,11.7,26.2,26.2,26.2c14.4,0,26.2-11.7,26.2-26.2"/>
	</g>
	<circle class="st7" cx="111" cy="206.5" r="17"/>
</g>
</svg>
